<svg width="80" height="80" viewBox="0 0 80 80" fill="none" xmlns="http://www.w3.org/2000/svg">
<path d="M78.3333 31.6667H72.1667C72 31.5 72 31.5 71.8333 31.3333C73.3333 30.1667 74.3333 28.3333 74.3333 26.3333C74.3333 22.8333 71.5 20 68 20H58H56.3333V21.6667V36.6667V37.6667L55.8333 36.1667L50.8333 21.1667L50.3333 20H49.1667H42.1667H41L40.6667 21.1667L39.3333 25.3333V25V21.6667V20H37.6667H15.1667C12 20 9.66667 22.5 9.66667 25.6667C9.66667 27.1667 10.1667 27.8333 10.5 28.3333C10.8333 28.6667 12.1667 30.3333 13 31.5H1.66667H0V33.1667V36.5V38.1667H1.66667H16.3333C19.5 38.1667 22 35.6667 22 32.5C22 31 21.5 30.3333 21.1667 29.8333L18.6667 26.5H24.5V36.5V38.1667H26.1667H30.5H32.1667V36.5V26.5H37.6667H38.8333L35.8333 36L35 38.3333H37.3333H41.5H42.6667L43 37.1667L43.8333 35H47.8333L48.6667 37.1667L49 38.3333H50H54.1667H56.1667H57.8333H62.3333H64V36.6667V34.8333C65 35.8333 66 36.6667 66.6667 37.3333C67 37.5 67.6667 38.3333 69 38.3333H78.3333H80V36.6667V33.3333V31.6667H78.3333ZM25.8333 43.8333L20.8333 58.8333L20.5 60H19.3333H16.5H15.3333L15 58.8333L13.3333 54.3333L11.8333 58.8333L11.3333 60H10.1667H7.33333H6L5.66667 58.8333L0.666667 43.8333L0 41.6667H2.33333H6.66667H7.83333L8.16667 42.8333L8.66667 44.6667L9.33333 42.8333L9.83333 41.6667H11H15.6667H16.8333L17.1667 42.8333L17.8333 44.6667L18.3333 42.8333L18.6667 41.6667H20H24.3333H26.6667L25.8333 43.8333ZM68.8333 41.6667C65.6667 41.6667 63.1667 44.1667 63.1667 47.3333C63.1667 48.8333 63.6667 49.5 64 50C64.3333 50.3333 65.6667 52 66.6667 53.1667H59.1667C59.1667 53.1667 59.1667 53.1667 59 53.1667L58.8333 53C60.3333 51.8333 61.3333 50 61.3333 48C61.3333 44.5 58.5 41.6667 55 41.6667H49.3333H45H43.3333V43.3333V58.3333V60L42.6667 57.8333L37.6667 42.8333L37.3333 41.6667H36.1667H29.1667H28L27.6667 42.8333L22.8333 57.8333L22 60H24.3333H28.3333H29.5L29.8333 58.8333L30.6667 56.6667H34.6667L35.5 58.8333L35.8333 60H37H41.1667H43.3333H45H49.5H51.1667V58.3333V56.5C52.1667 57.5 53.1667 58.3333 54 59C54.6667 59.6667 55.5 60 56.5 60H70.3333C73.5 60 76 57.5 76 54.3333C76 52.8333 75.5 52.1667 75.1667 51.6667L72.6667 48.3333H78.3333H80V46.6667V43.3333V41.6667H78.3333H68.8333Z" fill="#FFC107"/>
<path d="M37.5 21.6667C37.5 21.6667 16.5 21.6667 15 21.6667C12.8333 21.6667 11.1667 23.3333 11.1667 25.6667C11.1667 26.6667 11.5 27 11.6667 27.3333C12.1667 28 15.1667 31.6667 15.1667 31.6667C15.1667 31.8333 15.3333 32 15.3333 32.1667C15.5 32.8333 15 33.3333 14.3333 33.3333H1.66666V36.6667C1.66666 36.6667 15.1667 36.6667 16.3333 36.6667C18.5 36.6667 20.3333 35 20.3333 32.6667C20.3333 31.6667 20 31.3333 19.8333 31L16.6667 26.6667C16.6667 26.5 16.5 26.3333 16.5 26.1667C16.5 25.5 17 25 17.6667 25H26.3333V36.6667H30.6667V25H37.8333V21.6667H37.5ZM49.1667 21.6667H42.1667L37.3333 36.6667H41.5L42.6667 33.3333H49L50.1667 36.6667H54.3333L49.1667 21.6667ZM43.6667 30L45.6667 24L47.6667 30H43.6667ZM72.1667 33.3333C71.5 33.3333 71.1667 33 70.8333 32.6667C70 31.6667 69 30.8333 69 30.8333C71 30.3333 72.5 28.5 72.5 26.3333C72.5 23.6667 70.3333 21.6667 67.8333 21.6667H57.8333V36.6667H62.3333V31C62.3333 31 66.1667 34.6667 67.8333 36.1667C68 36.3333 68.5 36.6667 69.1667 36.6667C69.6667 36.6667 78.3333 36.6667 78.3333 36.6667V33.3333H72.1667ZM62.3333 25H66.6667C67.6667 25 68.5 25.6667 68.5 26.6667C68.5 27.6667 67.6667 28.3333 66.6667 28.3333H62.3333V25ZM20 43.3333L17.8333 49.8333L15.6667 43.3333H11L8.66666 49.8333L6.49999 43.3333H2.33332L7.33332 58.3333H10.1667L13.3333 49.1667L16.5 58.3333H19.3333L24.3333 43.3333H20ZM71.1667 46.6667H78.3333V43.3333C78.3333 43.3333 70.3333 43.3333 68.8333 43.3333C66.6667 43.3333 64.8333 45 64.8333 47.3333C64.8333 48.3333 65.1667 48.6667 65.3333 49C65.8333 49.5 69 53.1667 69 53.1667C69 53.3333 69.1667 53.5 69.1667 53.6667C69.1667 54.3333 68.6667 54.8333 68.1667 54.8333C68.1667 54.8333 59.5 54.8333 59.3333 54.8333C58.6667 54.8333 58.3333 54.5 58 54.1667C57.1667 53.1667 56.3333 52.3333 56.3333 52.3333C58.3333 51.8333 59.8333 50 59.8333 47.8333C59.8333 45.1667 57.6667 43.1667 55.1667 43.1667H49.5H45V58.1667H49.5V52.5C49.5 52.5 53.3333 56.1667 55 57.6667C55.1667 57.8333 55.6667 58.1667 56.3333 58.1667C56.8333 58.1667 69.3333 58.1667 70.1667 58.1667C72.3333 58.1667 74.1667 56.6667 74.1667 54.1667C74.1667 53.1667 73.8333 52.8333 73.6667 52.5L70.3333 48.3333C70.3333 48.1667 70.1667 48 70.1667 47.8333C70.1667 47.1667 70.6667 46.6667 71.1667 46.6667ZM53.8333 50H49.5V46.6667H53.8333C54.8333 46.6667 55.6667 47.3333 55.6667 48.3333C55.6667 49.3333 54.8333 50 53.8333 50ZM36.1667 43.3333H29.1667L24.3333 58.3333H28.3333L29.5 55H35.8333L37 58.3333H41.1667L36.1667 43.3333ZM30.6667 51.6667L32.6667 45.6667L34.6667 51.6667H30.6667Z" fill="black"/>
</svg>
